# xmcd CD database file
#
# Track frame offsets:
#	150
#	22852
#	38525
#	61223
#
# Disc length: 857 seconds
#
# Revision: 1
# Processed by: cddbd v1.4PL0 Copyright (c) Steve Scherf et al.
# Submitted via: Feurio! 1.64 - http://www.feurio.com
#
DISCID=21035704
DTITLE=Various Artist - fgjgjfg fg jf
DYEAR=1900
DGENRE=
TTITLE0=Golden Earring - radar love
TTITLE1=Santana - black magic woman
TTITLE2=Golden Earring - Radar Love
TTITLE3=Kylie Minogue - 03 - Can't Get You Out Of My Head - simplemp3s
EXTD=
EXTT0=
EXTT1=
EXTT2=
EXTT3=
PLAYORDER=
